<?xml version="1.0" encoding="UTF-8"?>
<svg width="54px" height="54px" viewBox="0 0 54 54" version="1.1" xmlns="http://www.w3.org/2000/svg" xmlns:xlink="http://www.w3.org/1999/xlink">
    <!-- Generator: Sketch 60.1 (88133) - https://sketch.com -->
    <title>Logo/GE-Primary Blue</title>
    <desc>Created with Sketch.</desc>
    <defs>
        <polygon id="path-1" points="0 0 53.9994194 0 53.9994194 53.9987661 0 53.9987661"></polygon>
    </defs>
    <g id="v3" stroke="none" stroke-width="1" fill="none" fill-rule="evenodd">
        <g id="Landing" transform="translate(-16.000000, -12.000000)">
            <g id="Logo/GE-Primary-Blue" transform="translate(16.000000, 12.000000)">
                <g id="Group-3">
                    <mask id="mask-2" fill="white">
                        <use xlink:href="#path-1"></use>
                    </mask>
                    <g id="Clip-2"></g>
                    <path d="M33.0570726,19.9675887 C33.0570726,16.8987339 35.1341855,13.9195887 36.2687661,14.4844113 C37.5599758,15.1308145 35.3025726,18.0215565 33.0570726,19.9675887 M18.9225726,21.0886694 C18.9225726,18.6180242 21.3585242,13.9264113 22.8481694,14.4241694 C24.60375,15.010621 21.3903145,19.7418629 18.9225726,21.0886694 M16.45425,38.74275 C15.3343306,38.7937016 14.5852984,38.0764597 14.5852984,36.8817823 C14.5852984,33.6660242 19.0439274,30.5961532 22.4087661,28.9511855 C21.8121532,33.438121 20.2959435,38.566379 16.45425,38.74275 M37.0212823,28.2735726 C34.4774758,28.2735726 32.5337661,30.1436855 32.5337661,32.3874435 C32.5337661,34.2558145 33.6564435,35.7521371 35.1511694,35.7521371 C35.6750565,35.7521371 36.1990887,35.4528145 36.1990887,34.7808629 C36.1990887,33.8078468 34.909621,33.5707984 35.0099274,32.1158468 C35.0740887,31.1586532 35.976121,30.5155887 36.8726371,30.5155887 C38.6656694,30.5155887 39.5060081,32.2552016 39.5060081,34.0493952 C39.4311048,36.8170403 37.3943468,38.74275 35.0031048,38.74275 C31.8612339,38.74275 29.8424758,35.7521371 29.8424758,32.5353629 C29.8424758,27.7485242 32.9821694,25.8784113 34.628879,25.4292823 C34.6458629,25.4292823 38.9292823,26.1947177 38.7971855,24.3037016 C38.7359274,23.4741048 37.5020565,23.1543145 36.6072823,23.1191855 C35.6126371,23.0789758 34.6136371,23.4366532 34.6136371,23.4366532 C34.0913468,23.1747823 33.7313468,22.6598952 33.5067823,22.0611048 C36.5733145,19.7418629 38.7421694,17.4965081 38.7421694,14.9561855 C38.7421694,13.6076371 37.8440565,12.412379 36.1241855,12.412379 C33.0570726,12.412379 30.7401532,16.3022661 30.7401532,19.8156048 C30.7401532,20.4149758 30.7401532,21.0131855 30.8898145,21.5376532 C28.9455242,22.9582016 27.4984113,23.8410726 24.8821694,25.4134597 C24.8821694,25.0856855 24.9495242,24.2407016 25.1690081,23.1453145 C26.0672661,22.1711371 27.2999758,20.7138629 27.2999758,19.591621 C27.2999758,19.0704919 27.0016694,18.6180242 26.3995403,18.6180242 C24.9059758,18.6180242 23.7843145,20.8641048 23.4849919,22.4359113 C22.811879,23.2592661 21.4656532,24.3071855 20.3423952,24.3071855 C19.4452984,24.3071855 19.1477177,23.48325 19.0710726,23.1843629 C21.9142016,22.2107661 25.4298629,18.3197177 25.4298629,14.8047823 C25.4298629,14.0590887 25.1299597,12.412379 22.8866371,12.412379 C19.5207823,12.412379 16.6799758,17.4227661 16.6799758,21.3132339 C15.4818145,21.3132339 15.0338468,20.0424919 15.0338468,19.0704919 C15.0338468,18.0974758 15.4069113,17.1232984 15.4069113,16.8251371 C15.4069113,16.52625 15.25725,16.1520242 14.8087016,16.1520242 C13.6866048,16.1520242 13.0140726,17.6473306 13.0140726,19.3670565 C13.0899919,21.7616371 14.6590403,23.2592661 16.7541532,23.4089274 C17.0524597,24.8304919 18.3243629,26.1777339 19.8938468,26.1777339 C20.8664274,26.1777339 22.0634274,25.8784113 22.8866371,25.1299597 C22.811879,25.6526855 22.7375565,26.1029758 22.6616371,26.5519597 C19.371121,28.2735726 16.9787177,29.4711532 14.8087016,31.4138468 C13.0899919,32.9862339 12.1169758,35.0785887 12.1169758,36.7223952 C12.1169758,38.9673145 13.5379597,41.06025 16.45425,41.06025 C19.8938468,41.06025 22.5118306,38.2942016 23.7843145,34.4797984 C24.3825242,32.6850242 24.6229113,30.0738629 24.7732984,27.678121 C28.2123145,25.7326694 29.8424758,24.6065081 31.6366694,23.3340242 C31.8612339,23.7078145 32.0868145,24.0071371 32.385121,24.2317016 C30.8150565,25.0556371 27.0748306,27.3741532 27.0748306,32.8348306 C27.0748306,36.7223952 29.6928145,41.06025 34.8528629,41.06025 C39.1163952,41.06025 42.0350081,37.54575 42.0350081,34.1809113 C42.0350081,31.1155403 40.3139758,28.2735726 37.0212823,28.2735726 M49.879379,34.6969597 C49.8702339,34.7207661 49.8249435,34.7547339 49.7414758,34.7246855 C49.678621,34.7014597 49.6593145,34.67025 49.6616371,34.6294597 C49.6649758,34.5857661 50.5677339,31.92525 50.55975,28.8723629 C50.5495887,25.5777823 49.2125081,23.5569919 47.494379,23.5569919 C46.4448629,23.5569919 45.6980081,24.3071855 45.6980081,25.4292823 C45.6980081,27.4502177 48.1663306,27.599879 48.1663306,32.0130726 C48.1663306,33.8078468 47.7921048,35.5269919 47.1927339,37.3971048 C44.4272661,46.7441855 35.6002984,51.0820403 27.0016694,51.0820403 C23.0364435,51.0820403 20.219879,50.2660887 19.3795403,49.8889597 C19.3449919,49.8719758 19.3172661,49.8072339 19.3438306,49.7404597 C19.3631371,49.6911048 19.4209113,49.6530726 19.4538629,49.6655565 C19.7935403,49.7999758 22.2136694,50.5603306 25.2041371,50.5603306 C28.4963952,50.5603306 30.4390887,49.2119274 30.4390887,47.568121 C30.4390887,46.5207823 29.6202339,45.69975 28.5712984,45.69975 C26.5515242,45.69975 26.3995403,48.2410887 22.0634274,48.2410887 C20.1933145,48.2410887 18.5483468,47.8646855 16.6033306,47.2669113 C7.32897581,44.4261048 2.90997581,35.6756371 2.91736975,26.9999274 C2.92028226,22.7721048 4.10305645,19.4074113 4.12352419,19.3744597 C4.13600806,19.3506532 4.19262097,19.3280081 4.2573629,19.3506532 C4.32370161,19.3744597 4.34126613,19.4312177 4.33618548,19.4487823 C4.22673387,19.7992016 3.44025,22.2113468 3.44025,25.2035565 C3.44025,28.4981371 4.78691129,30.4412661 6.50678226,30.4412661 C7.47921774,30.4412661 8.30315323,29.6945565 8.30315323,28.6477984 C8.30315323,26.6257016 5.83308871,26.4022984 5.83308871,22.0611048 C5.83308871,20.1909919 6.20731452,18.5437016 6.80610484,16.6005726 C9.64865323,7.32723387 18.3997016,2.97921774 27.0016694,2.9156371 C30.9986855,2.88384677 34.495621,4.08099194 34.628879,4.18637903 C34.6526855,4.20626613 34.6782339,4.25837903 34.6526855,4.3196371 C34.6237984,4.39047581 34.5779274,4.39904032 34.552379,4.39454032 C34.5115887,4.39047581 32.236621,3.43966935 28.794121,3.43966935 C25.5783629,3.43792742 23.5609113,4.78516935 23.5609113,6.50678226 C23.5609113,7.47689516 24.3071855,8.29908871 25.4298629,8.29908871 C27.4484758,8.29908871 27.5992984,5.83250806 31.9359919,5.83250806 C33.8049435,5.83250806 35.4504919,6.20441129 37.3943468,6.80320161 C46.7447661,9.64691129 51.0003145,18.4717016 51.0814597,26.9999274 C51.1228306,31.3695726 49.892879,34.6731532 49.879379,34.6969597 M27.0016694,1.27008871 C12.7900887,1.27008871 1.27125,12.7871855 1.27125,26.9999274 C1.27125,41.2110726 12.7900887,52.7258468 27.0016694,52.7258468 C41.2104919,52.7258468 52.72875,41.2110726 52.72875,26.9999274 C52.72875,12.8626694 41.2104919,1.27008871 27.0016694,1.27008871 M27.0016694,53.9987661 C12.1169758,53.9987661 -7.25806452e-05,41.9583629 -7.25806452e-05,26.9999274 C-7.25806452e-05,12.1130565 12.1169758,-7.25806452e-05 27.0016694,-7.25806452e-05 C41.8830242,-7.25806452e-05 53.9994919,12.1130565 53.9994919,26.9999274 C53.9994919,41.9583629 41.8830242,53.9987661 27.0016694,53.9987661" id="Fill-1" fill="#005EB8" fill-rule="nonzero" mask="url(#mask-2)"></path>
                </g>
            </g>
        </g>
    </g>
</svg>